<svg height="511.99999pt" viewBox="1 1 511.99999 511.99999" width="511.99999pt" xmlns="http://www.w3.org/2000/svg"><path d="m224 352 112-96-112-96zm0 0" fill="#bddbff"/><g fill="#3d9ae2"><path d="m256 512c-141.382812 0-256-114.617188-256-256s114.617188-256 256-256 256 114.617188 256 256c-.167969 141.316406-114.683594 255.832031-256 256zm0-480c-123.710938 0-224 100.289062-224 224 0 123.714844 100.289062 224 224 224s224-100.285156 224-224c-.132812-123.65625-100.34375-223.867188-224-224zm0 0"/><path d="m224 368c-8.835938 0-16-7.164062-16-16v-192c0-8.835938 7.164062-16 16-16 3.824219 0 7.515625 1.367188 10.417969 3.855469l112 96c6.707031 5.753906 7.476562 15.855469 1.726562 22.5625-.53125.617187-1.109375 1.195312-1.726562 1.726562l-112 96c-2.902344 2.488281-6.597657 3.855469-10.417969 3.855469zm16-173.214844v122.429688l71.40625-61.214844zm0 0"/></g></svg>